<?xml version="1.0" encoding="UTF-8"?>
<svg id="Layer_1" data-name="Layer 1" xmlns="http://www.w3.org/2000/svg" viewBox="0 0 689 233.5">
  <defs>
    <style>
      .cls-1 {
        fill: #fff;
      }

      .cls-2 {
        fill: #0786e5;
      }
    </style>
  </defs>
  <g>
    <path class="cls-2" d="M386.09,103.68v10.3c0,2.53-.1,5.01-.33,7.39h-58.18c-2.77,0-4.48-2.96-3.1-5.34l8.3-14.16c.62-1.1,1.81-1.76,3.05-1.76h46.74c1.96,0,3.53,1.62,3.53,3.58Z"/>
    <path class="cls-1" d="M385.75,121.37c-.05,1.14-.19,2.24-.33,3.34-.81,6.3-2.34,12.11-4.67,17.41-3.58,8.16-8.44,14.93-14.55,20.41-6.1,5.53-12.97,9.63-20.6,12.4-7.68,2.77-15.55,4.2-23.7,4.2-9.87,0-18.98-1.81-27.37-5.39-8.39-3.58-15.69-8.58-21.99-14.98-6.3-6.44-11.21-13.93-14.74-22.56-3.48-8.63-5.25-18.07-5.25-28.33s1.67-19.7,5.06-28.38c3.43-8.73,8.2-16.21,14.45-22.56,6.2-6.39,13.54-11.3,21.94-14.83,8.35-3.48,17.5-5.25,27.33-5.25s18.74,1.67,26.56,4.96c7.82,3.34,14.45,7.77,19.89,13.26,4.58,4.58,8.01,9.59,10.4,14.93.76,1.72-.05,3.72-1.76,4.58l-15.98,7.63c-1.81.86-3.96,0-4.82-1.86-2.67-5.58-6.53-10.21-11.68-13.93-6.2-4.44-13.69-6.63-22.61-6.63s-16.21,2-22.8,6.1c-6.63,4.05-11.73,9.68-15.36,16.83-3.67,7.15-5.48,15.55-5.48,25.13s1.91,18.03,5.68,25.28c3.72,7.2,8.97,12.83,15.59,16.93,6.68,4.05,14.31,6.1,22.94,6.1,7.06,0,13.5-1.38,19.46-4.2,5.91-2.77,10.64-6.68,14.21-11.83,1.72-2.43,3-5.1,3.91-7.96,1-3.15,1.48-6.58,1.48-10.25v-.57h24.8Z"/>
    <path class="cls-1" d="M468.97,78.57c-6.29-3.02-13.56-4.53-21.83-4.53-6.78,0-13.07,1.11-18.86,3.33-5.8,2.21-10.82,5.27-15.08,9.15-3.39,3.09-6.05,6.63-7.99,10.62-.84,1.72.01,3.83,1.73,4.66l13.51,6.57c1.64.8,3.69.26,4.58-1.34,1.81-3.25,4.28-5.95,7.41-8.12,4.01-2.78,8.6-4.16,13.78-4.16,5.55,0,10.03,1.45,13.42,4.35,3.39,2.89,5.08,6.5,5.08,10.82v3.25l-29.97,4.89c-7.89,1.23-14.43,3.33-19.61,6.29-5.18,2.96-9,6.63-11.47,11-2.47,4.38-3.69,9.34-3.69,14.9s1.41,10.88,4.26,15.26c2.83,4.38,6.84,7.74,12.02,10.09,5.18,2.34,11.28,3.51,18.32,3.51,5.54,0,10.6-.77,15.16-2.32,4.56-1.54,8.63-3.76,12.21-6.66,1.46-1.18,2.78-2.55,4.07-3.97v7.16c0,1.97,1.6,3.56,3.56,3.56h15.81c1.97,0,3.56-1.6,3.56-3.56v-63.4c0-7.16-1.76-13.41-5.27-18.78-3.52-5.37-8.43-9.56-14.72-12.58ZM461.48,148.4c-2.16,3.82-5.18,6.82-9.06,8.97-3.88,2.16-8.35,3.24-13.42,3.24-3.94,0-7.24-1.02-9.9-3.06-2.65-2.03-3.97-4.78-3.97-8.23s1.17-6.47,3.51-8.69c2.35-2.22,5.93-3.76,10.73-4.62l25.34-4.31v4.12c0,4.57-1.08,8.76-3.23,12.58Z"/>
    <path class="cls-1" d="M560.87,156.72c-3.88,0-7.17-.59-9.67-1.84s-4.34-3.03-5.53-5.4c-1.18-2.3-1.78-5.13-1.78-8.49v-39.54c0-1.97,1.6-3.56,3.56-3.56h15.97c1.97,0,3.56-1.6,3.56-3.56v-14.52c0-1.97-1.6-3.56-3.56-3.56h-15.97c-1.97,0-3.56-1.6-3.56-3.56v-14.46c0-2.41-2.35-4.13-4.65-3.4l-17.09,5.46c-1.48.47-2.48,1.84-2.48,3.4v9.19c0,1.92-1.52,3.5-3.44,3.56l-10.49.36c-1.92.07-3.44,1.64-3.44,3.56v13.99c0,1.97,1.6,3.56,3.56,3.56h10.25c1.97,0,3.56,1.6,3.56,3.56v40.86c0,11.32,3.09,20.14,9.35,26.33,6.19,6.25,15.01,9.35,26.33,9.35,1.84,0,3.88-.13,6.12-.33,2.24-.26,4.21-.53,5.92-.79v-20.67c-1.12.07-2.24.2-3.42.33-1.18.13-2.17.2-3.09.2Z"/>
    <path class="cls-1" d="M666.91,88.65c-4.2-4.56-9.28-8.14-15.27-10.73-5.99-2.59-12.91-3.89-20.81-3.89-9.38,0-17.86,2.29-25.44,6.85-7.59,4.56-13.58,10.76-17.95,18.59-4.37,7.83-6.57,16.8-6.57,26.92s2.15,18.62,6.48,26.63c4.31,8.02,10.36,14.37,18.12,19.05,7.78,4.69,16.84,7.03,27.2,7.03,6.9,0,13.23-1.05,18.96-3.15,5.73-2.1,10.69-5,14.89-8.69,3.24-2.86,5.82-6.05,7.73-9.57.94-1.72.1-3.89-1.66-4.76l-13.59-6.66c-1.62-.79-3.49-.19-4.55,1.27-1.99,2.73-4.47,4.98-7.44,6.77-3.9,2.34-8.61,3.51-14.15,3.51s-10.46-1.3-14.72-3.89c-4.24-2.59-7.46-6.25-9.61-11-1.32-2.9-2.09-6.1-2.42-9.53h72.42c.5-1.36.84-2.96,1.02-4.81.19-1.85.27-3.64.27-5.36,0-6.78-1.11-13.1-3.33-18.96-2.21-5.86-5.42-11.07-9.61-15.63ZM617.33,97.81c3.94-2.52,8.44-3.79,13.5-3.79s9.83,1.3,13.59,3.89c3.77,2.59,6.48,6.1,8.14,10.54.76,2.03,1.2,4.2,1.38,6.48h-47.3c.41-2.13.94-4.17,1.71-6.01,2.03-4.88,5.02-8.57,8.97-11.1Z"/>
  </g>
  <g>
    <path class="cls-2" d="M211.84,103.65l-38.45,80.34c-.61,1.27-1.88,2.07-3.29,2.07h-22.97c-30.04-.28-60.04-.04-63.98,0-.22,0-5.58,0-7.92,0-.7,0-1.38.2-1.97.59l-41.56,26.91c-3.14,2.03-6.94-1.42-5.21-4.74l24.44-46.87c.52-.92,1.27-1.67,2.15-2.23l.12-.2.12.04c1.03-.6,2.19-.96,3.42-.96l95.65.32c1.43,0,2.75-.84,3.42-2.11l23.18-48.55c1.15-2.42-.61-5.21-3.28-5.21l-55.11-.07c-1.36,0-2.61.76-3.24,1.97l-16.53,31.89c-.68,1.23-1.91,2.03-3.34,2.07,0,0-4.54.03-27.43.2-2.76.02-4.55-2.91-3.26-5.35l31.27-59.21c.63-1.19,1.85-1.93,3.2-1.94l89.22-.65c1.21,0,2.35.59,3.04,1.59l18.05,26.46c.73,1.07.84,2.46.28,3.63Z"/>
    <path class="cls-2" d="M28.62,160.63l58.32-108.62c.76-1.41,2.23-2.3,3.83-2.31l116.63-.87c2.71-.02,4.25-3.12,2.63-5.29l-16.07-21.53c-1.26-1.69-3.24-2.68-5.34-2.68h-112.21c-4.9,0-9.4,2.69-11.72,7L9.64,128.71c-.69,1.29-.65,2.84.1,4.09l10.95,27.38c1.38,3.46,6.17,3.73,7.93.45Z"/>
  </g>
</svg>